<svg width="40" height="40" viewBox="0 0 40 40" fill="none" xmlns="http://www.w3.org/2000/svg">
<rect width="40" height="40" rx="20" fill="white"/>
<path d="M15.1986 21.1498H19.3209L19.3202 26.4917H10.4927C10.362 26.4917 10.2367 26.4398 10.1443 26.3474C10.0519 26.255 10 26.1297 10 25.9991V15.797C10 12.5955 12.5954 10 15.7968 10H20.4633C20.5938 9.99993 20.719 10.0517 20.8114 10.1439C20.9038 10.2361 20.9558 10.3612 20.956 10.4917V12.5119L15.1986 21.1498Z" fill="url(#paint0_linear_1_235)"/>
<path d="M20.9695 18.6762V13.507L29.5071 13.5078C29.6378 13.5078 29.7632 13.5597 29.8556 13.6521C29.9481 13.7446 30 13.87 30 14.0007V24.2028C30 27.4045 27.4046 30 24.203 30H19.8271C19.7624 30 19.6983 29.9872 19.6385 29.9625C19.5787 29.9377 19.5244 29.9014 19.4786 29.8556C19.4329 29.8098 19.3966 29.7555 19.3718 29.6957C19.3471 29.6359 19.3344 29.5718 19.3344 29.5071V27.3139L25.0918 18.6762H20.9695Z" fill="url(#paint1_linear_1_235)"/>
<defs>
<linearGradient id="paint0_linear_1_235" x1="10" y1="10" x2="33.829" y2="17.0407" gradientUnits="userSpaceOnUse">
<stop stop-color="#EC590C"/>
<stop offset="1" stop-color="#D946EF"/>
</linearGradient>
<linearGradient id="paint1_linear_1_235" x1="10" y1="10" x2="33.829" y2="17.0407" gradientUnits="userSpaceOnUse">
<stop stop-color="#EC590C"/>
<stop offset="1" stop-color="#D946EF"/>
</linearGradient>
</defs>
</svg>
