<svg width="16" height="17" viewBox="0 0 16 17" fill="none" xmlns="http://www.w3.org/2000/svg">
<path d="M8 12.5C8.22667 12.5 8.4168 12.4232 8.5704 12.2696C8.72347 12.1165 8.8 11.9267 8.8 11.7V8.48C8.8 8.25333 8.72347 8.06667 8.5704 7.92C8.4168 7.77333 8.22667 7.7 8 7.7C7.77333 7.7 7.58347 7.77653 7.4304 7.9296C7.2768 8.0832 7.2 8.27333 7.2 8.5V11.72C7.2 11.9467 7.2768 12.1333 7.4304 12.28C7.58347 12.4267 7.77333 12.5 8 12.5ZM8 6.1C8.22667 6.1 8.4168 6.0232 8.5704 5.8696C8.72347 5.71653 8.8 5.52667 8.8 5.3C8.8 5.07333 8.72347 4.8832 8.5704 4.7296C8.4168 4.57653 8.22667 4.5 8 4.5C7.77333 4.5 7.58347 4.57653 7.4304 4.7296C7.2768 4.8832 7.2 5.07333 7.2 5.3C7.2 5.52667 7.2768 5.71653 7.4304 5.8696C7.58347 6.0232 7.77333 6.1 8 6.1ZM8 16.5C6.89333 16.5 5.85333 16.2899 4.88 15.8696C3.90667 15.4499 3.06 14.88 2.34 14.16C1.62 13.44 1.05013 12.5933 0.6304 11.62C0.210133 10.6467 0 9.60667 0 8.5C0 7.39333 0.210133 6.35333 0.6304 5.38C1.05013 4.40667 1.62 3.56 2.34 2.84C3.06 2.12 3.90667 1.54987 4.88 1.1296C5.85333 0.709867 6.89333 0.5 8 0.5C9.10667 0.5 10.1467 0.709867 11.12 1.1296C12.0933 1.54987 12.94 2.12 13.66 2.84C14.38 3.56 14.9499 4.40667 15.3696 5.38C15.7899 6.35333 16 7.39333 16 8.5C16 9.60667 15.7899 10.6467 15.3696 11.62C14.9499 12.5933 14.38 13.44 13.66 14.16C12.94 14.88 12.0933 15.4499 11.12 15.8696C10.1467 16.2899 9.10667 16.5 8 16.5ZM8 14.9C9.77333 14.9 11.2835 14.2768 12.5304 13.0304C13.7768 11.7835 14.4 10.2733 14.4 8.5C14.4 6.72667 13.7768 5.21653 12.5304 3.9696C11.2835 2.7232 9.77333 2.1 8 2.1C6.22667 2.1 4.7168 2.7232 3.4704 3.9696C2.22347 5.21653 1.6 6.72667 1.6 8.5C1.6 10.2733 2.22347 11.7835 3.4704 13.0304C4.7168 14.2768 6.22667 14.9 8 14.9Z" fill="white"/>
</svg>
