<svg width="20" height="20" viewBox="0 0 20 20" fill="none" xmlns="http://www.w3.org/2000/svg">
<path d="M5.19858 11.1498H9.32093L9.32017 16.4917H0.492662C0.362 16.4917 0.236689 16.4398 0.144297 16.3474C0.0519055 16.255 0 16.1297 0 15.9991V5.797C0 2.59547 2.59538 6.50166e-08 5.79679 6.50166e-08H10.4633C10.5938 -6.69536e-05 10.719 0.0516802 10.8114 0.143871C10.9038 0.236063 10.9558 0.361157 10.956 0.491669V2.51188L5.19858 11.1498Z" fill="url(#paint0_linear_1_236)"/>
<path d="M10.9695 8.67621V3.507L19.5071 3.50776C19.6378 3.50776 19.7632 3.55969 19.8556 3.65213C19.9481 3.74457 20 3.86995 20 4.00069V14.2028C20 17.4045 17.4046 20 14.203 20H9.82708C9.76236 20 9.69828 19.9872 9.63849 19.9625C9.5787 19.9377 9.52438 19.9014 9.47863 19.8556C9.43288 19.8098 9.39659 19.7555 9.37185 19.6957C9.34711 19.6359 9.33439 19.5718 9.33442 19.5071V17.3139L15.0918 8.67621H10.9695Z" fill="url(#paint1_linear_1_236)"/>
<defs>
<linearGradient id="paint0_linear_1_236" x1="0" y1="0" x2="23.829" y2="7.04069" gradientUnits="userSpaceOnUse">
<stop stop-color="#EC590C"/>
<stop offset="1" stop-color="#D946EF"/>
</linearGradient>
<linearGradient id="paint1_linear_1_236" x1="0" y1="0" x2="23.829" y2="7.04069" gradientUnits="userSpaceOnUse">
<stop stop-color="#EC590C"/>
<stop offset="1" stop-color="#D946EF"/>
</linearGradient>
</defs>
</svg>
